# xmcd
#
# Track frame offsets:
#	150
#	18521
#	35681
#	52772
#	70648
#	90354
#	107826
#	128354
#	146679
#	162448
#
# Disc length: 2397 seconds
#
# Revision: 1
# Processed by: cddbd v1.5.2PL0 Copyright (c) Steve Scherf et al.
# Submitted via: audiograbber 1.83.01
#
DISCID=78095b0a
DTITLE=The Story of Chicano Rap - The Story of Chicano Rap
DYEAR=2005
DGENRE=Rap
TTITLE0=Mr. Capone-E - California Livin'
TTITLE1=Seldom Seen - All Night Long
TTITLE2=Mr. Capone-E - You Are the One for Me
TTITLE3=Slow Pain, Big Bandit, Lil Savage - I Want You
TTITLE4=Lil Tweety - On A Sunday
TTITLE5=Junebug Slim - Palm Trees and Sunshine
TTITLE6=South Siders - Having A Smokeout
TTITLE7=Marlow Mac - Love You So
TTITLE8=Junebug Slim - Summer Time Groove
TTITLE9=Junebug Slim - Cali Livin
EXTD=CD 2
EXTT0=
EXTT1=
EXTT2=
EXTT3=
EXTT4=
EXTT5=
EXTT6=
EXTT7=
EXTT8=
EXTT9=
PLAYORDER=
